/* XPM */
static char *kubrick[] = {
/* columns rows colors chars-per-pixel */
"32 32 231 2 ",
"   c #272727",
".  c #2D2D2D",
"X  c #313131",
"o  c #3C3C3C",
"O  c #1A344C",
"+  c #083555",
"@  c #093A5E",
"#  c #173654",
"$  c #1A3651",
"%  c #1B3955",
"&  c #14395C",
"*  c #1C3C5B",
"=  c #283B4B",
"-  c #233B52",
";  c #0D3E6C",
":  c #133C63",
">  c #1B3F61",
",  c #093E71",
"<  c #3E454D",
"1  c #294258",
"2  c #354554",
"3  c #0C406B",
"4  c #1E4163",
"5  c #15426C",
"6  c #1F466A",
"7  c #0D4377",
"8  c #0C4379",
"9  c #134575",
"0  c #1E4870",
"q  c #134779",
"w  c #12497C",
"e  c #1E507A",
"r  c #204365",
"t  c #234965",
"y  c #294B63",
"u  c #204A6F",
"i  c #324F63",
"p  c #3E5565",
"a  c #214B74",
"s  c #234E79",
"d  c #25527C",
"f  c #29537D",
"g  c #494949",
"h  c #404A53",
"j  c #424E59",
"k  c #4E5256",
"l  c #44525C",
"z  c #4E545A",
"x  c #535455",
"c  c #50565B",
"v  c #485763",
"b  c #4B5A66",
"n  c #4D5D6A",
"m  c #545D63",
"M  c #5C5F62",
"N  c #51626F",
"B  c #546672",
"V  c #656565",
"C  c #666668",
"Z  c #6A6A6A",
"A  c #6F6F70",
"S  c #657178",
"D  c #6C747B",
"F  c #737374",
"G  c #7B7B7D",
"H  c #268708",
"J  c #2C870F",
"K  c #2F910D",
"L  c #30930E",
"P  c #2E8F10",
"I  c #338A1A",
"U  c #379912",
"Y  c #3A9C13",
"T  c #3E9C19",
"R  c #3FA216",
"E  c #40A318",
"W  c #46AA1B",
"Q  c #4FB31F",
"!  c #439E25",
"~  c #419329",
"^  c #4FAF23",
"/  c #53B725",
"(  c #56BA26",
")  c #59BE27",
"_  c #5CC12A",
"`  c #60C32E",
"'  c #5A934A",
"]  c #639C4F",
"[  c #639E54",
"{  c #58A441",
"}  c #68AF50",
"|  c #7AB25E",
" . c #7CB46F",
".. c #75C44F",
"X. c #79CD4F",
"o. c #7CCB54",
"O. c #7DC958",
"+. c #D9B132",
"@. c #D6B33C",
"#. c #D8B339",
"$. c #E3BA36",
"%. c #E2BC3B",
"&. c #EAC43F",
"*. c #82B376",
"=. c #82B37A",
"-. c #BAAB77",
";. c #BBAD7A",
":. c #BCB07E",
">. c #D5B441",
",. c #DFBE45",
"<. c #DDBF49",
"1. c #E0BD40",
"2. c #9CD77E",
"3. c #9AD87C",
"4. c #DFC24E",
"5. c #E9C644",
"6. c #E7C748",
"7. c #E7C84C",
"8. c #EBC949",
"9. c #F0CF4B",
"0. c #E6CA52",
"q. c #E6CD5F",
"w. c #EFD254",
"e. c #EDD45B",
"r. c #F1D352",
"t. c #F3D759",
"y. c #F3DA5C",
"u. c #DDC268",
"i. c #DFCD6B",
"p. c #DECE78",
"a. c #DED579",
"s. c #E2CC60",
"d. c #E6D162",
"f. c #EBD664",
"g. c #E6D36A",
"h. c #E8D76D",
"j. c #EBDA6C",
"k. c #F4DE64",
"l. c #F1DE6A",
"z. c #E2CE7D",
"x. c #E2D575",
"c. c #E9DB72",
"v. c #E2DB7F",
"b. c #EADE79",
"n. c #F5E067",
"m. c #F5E26D",
"M. c #EFE276",
"N. c #ECE37C",
"B. c #F5E672",
"V. c #F7E876",
"C. c #F8E873",
"Z. c #F6EB7B",
"A. c #F9EC7A",
"S. c #0F4A81",
"D. c #144D84",
"F. c #184F84",
"G. c #114E88",
"H. c #1C5084",
"J. c #14528D",
"K. c #155692",
"L. c #14599B",
"P. c #2A5A86",
"I. c #145DA1",
"U. c #818182",
"Y. c #868688",
"T. c #8C8C8C",
"R. c #939394",
"E. c #9A9A9B",
"W. c #94AF8F",
"Q. c #93BC8D",
"!. c #9EBC8F",
"~. c #9CBC97",
"^. c #BDB284",
"/. c #BCB48A",
"(. c #A3A3A4",
"). c #ABABAC",
"_. c #ADBCA5",
"`. c #AEBBAD",
"'. c #B2B2B4",
"]. c #B7BEB6",
"[. c #B7B7B8",
"{. c #BDBDBE",
"}. c #9DD680",
"|. c #A1D786",
" X c #AFD29E",
".X c #AFCEA0",
"XX c #AEC4AC",
"oX c #AED4A1",
"OX c #B6C0B3",
"+X c #B9C5B3",
"@X c #BCC6B8",
"#X c #BDE1AC",
"$X c #DBCE8B",
"%X c #DDD581",
"&X c #D8D28B",
"*X c #C6C594",
"=X c #D6D098",
"-X c #E6E182",
";X c #EAE483",
":X c #F5EC80",
">X c #FAF080",
",X c #CFC8AE",
"<X c #DBCEA1",
"1X c #D5D2A3",
"2X c #D3D1AB",
"3X c #DED5AF",
"4X c #C4CFBD",
"5X c #C0D4B5",
"6X c #D3D0B4",
"7X c #DAD9BC",
"8X c #C3E3B3",
"9X c #CCE5BF",
"0X c #C2C2C3",
"qX c #CBCCC7",
"wX c #CCCDCE",
"eX c #D9D7C6",
"rX c #D3D3C9",
"tX c #DCDCC8",
"yX c #CFCFD0",
"uX c #D3D3D4",
"iX c #D6D6D8",
"pX c #DBDCDB",
"aX c #E2DCC6",
"sX c #E1DECC",
"dX c #CEE6C2",
"fX c #E2E2C6",
"gX c #E6E4DC",
"hX c #E4E4E5",
"jX c #E8E7E0",
"kX c #EBEBEB",
"lX c None",
/* pixels */
"lXlXlXlXlXlXlXlXlXlXlXlXlXlXlXlXlXlXlXlXlXlXlXlXlXlXlXlXlXlXlXlX",
"lXlXlXlXlXlXlXlXlXlXlXlXlXlXlXlXlXlXlXlXlXlXlXlXlXlXlXlXlXlXlXlX",
"lXlXlXlXlXlXlXlXlXlXlXlXlXlX{.pXpXqXlXlXlXlXlXlXlXlXlXlXlXlXlXlX",
"lXlXlXlXlXlXlXlXlXlXG E.`.*.{ ! } *.XXpX0XR.lXlXlXlXlXlXlXlXlXlX",
"lXlXlXlXlXlXlXY.(.`.[ ~ P Y E ^ O.|. XQ.Q.~.qX'.T.lXlXlXlXlXlXlX",
"lXlXlXlXT.[.wX' I H K L U E W / O.|.8XdX9X X .=.W.0X(.F lXlXlXlX",
"lXlXlXlXyX).wX].' J K U R W Q ) o.3.8XdX9X8X.X_.0X@XR.Z lXlXlXlX",
"lXlXlXlX,XgXiX'.wX`.] T W Q ( _ o.3.#XdX5X+XyXyX).F M c lXlXlXlX",
"lXlXlXlX-.>.<XkXuX{.iX4X| ( _ _ X.3. X@XuXpX0XU.Z l * h lXlXlXlX",
"lXlXlXlX-.+.$.u.aXkXwXkXkX+X| ` ..!.qXgXpXE.F c 1 > 4 h lXlXlXlX",
"lXlXlXlX;.+.%.&.8.$XjXkXiXhXpX_.].yXuX).Z M 2 * r r > j lXlXlXlX",
"lXlXlXlX^.+.%.5.9.9.q.3XkXpX0XuXqX(.F V h - - > r 6 6 l lXlXlXlX",
"lXlXlXlX^.#.1.6.9.r.r.r.z.sXkX0XA C k = % * * r 6 6 u v lXlXlXlX",
"lXlXlXlX^.@.,.7.r.t.t.t.t.q.hXpXV k O # * * 4 6 6 a a b lXlXlXlX",
"lXlXlXlX^.@.,.0.e.k.k.k.k.d.hXiXV k O # * > 4 6 a s s n lXlXlXlX",
"lXlXlXlX/.>.<.0.e.k.k.k.k.g.hXpXV k # % : 4 6 a a s f N lXlXlXlX",
"lXlXlXlX/.@.4.e.k.m.m.m.m.h.hXuXV k # * 5 0 D.F.H.d d B lXlXlXlX",
"lXlXlXlX6Xi.d.d.l.C.C.C.C.b.hXuXV z & : 5 q J.J.L.I.P.D . lXlXlX",
"lXlXlXlXY.eXp.q.f.l.V.A.A.b.hXuXV k & 5 9 D.J.K.L.d S x lXlXlXlX",
"lXlXlXlXlXF tX$Xd.j.M.Z.>XN.hXuXC c & ; 9 G.J.K.u D g lXlXlXlXlX",
"lXlXlXlXlXlXC rX=Xg.c.M.Z.;XhXuXV c : 9 w G.G.t F o lXlXlXlXlXlX",
"lXlXlXlXlXlXlXlXqX1Xx.c.N.-XhXyXV c ; 8 S.8 y F . lXlXlXlXlXlXlX",
"lXlXlXlXlXlXlXlXlX4X2X%Xc.v.hXyXC c ; 8 3 i V lXlXlXlXlXlXlXlXlX",
"lXlXlXlXlXlXlXlXlXlX'.7X&Xa.hXyXC c , @ p V lXlXlXlXlXlXlXlXlXlX",
"lXlXlXlXlXlXlXlXlXlXlX0XfX*XhXyXV c + n x lXlXlXlXlXlXlXlXlXlXlX",
"lXlXlXlXlXlXlXlXlXlXlXlXwXtXhXyXC m m g lXlXlXlXlXlXlXlXlXlXlXlX",
"lXlXlXlXlXlXlXlXlXlXlXlXlX[.hXwXV Z o lXlXlXlXlXlXlXlXlXlXlXlXlX",
"lXlXlXlXlXlXlXlXlXlXlXlXlXlXE.wXV X lXlXlXlXlXlXlXlXlXlXlXlXlXlX",
"lXlXlXlXlXlXlXlXlXlXlXlXlXlXlXA   lXlXlXlXlXlXlXlXlXlXlXlXlXlXlX",
"lXlXlXlXlXlXlXlXlXlXlXlXlXlXlXlXlXlXlXlXlXlXlXlXlXlXlXlXlXlXlXlX",
"lXlXlXlXlXlXlXlXlXlXlXlXlXlXlXlXlXlXlXlXlXlXlXlXlXlXlXlXlXlXlXlX",
"lXlXlXlXlXlXlXlXlXlXlXlXlXlXlXlXlXlXlXlXlXlXlXlXlXlXlXlXlXlXlXlX"
};
